<?xml version="1.0" encoding="utf-8"?>
<!-- Generator: Adobe Illustrator 25.0.0, SVG Export Plug-In . SVG Version: 6.00 Build 0)  -->
<svg version="1.1" id="Layer_1" xmlns="http://www.w3.org/2000/svg" xmlns:xlink="http://www.w3.org/1999/xlink" x="0px" y="0px"
	 width="346px" height="100px" viewBox="0 0 346 100" style="enable-background:new 0 0 346 100;" xml:space="preserve">
<style type="text/css">
	.st0{fill:#FFFFFF;}
</style>
<g>
	<g>
		<g>
			<g>
				<path class="st0" d="M138.7,18.5L140.6,0C81,0,70.3,11.1,70.3,11.1S59.5,0,0,0l1.8,18.5h21.5c8,0,12.6,1,17.2,3.3
					c8.4,4.3,13.2,14.7,13.2,28.6c0,13.6-4.7,23.8-13.2,28.8c-4.4,2.7-10,3.9-17.7,3.9H8.3l0.8,8.5c36.1,0,61.2,8.5,61.2,8.5
					s25.1-8.5,61.2-8.5l5.8-58.4l-11.4,1v48.9h-21.3V34.2l-13.1-1.3V18.5H138.7z M99.9,68v15H58.5V18.5h21.3v48.3L99.9,68z M30,65.4
					c1.6-2.2,2.1-5.6,2.1-14.2c0-13.9-1.4-17.4-7.2-17.4h-0.4l-1.6,0.1v33.8h2.4C27.2,67.7,29,66.8,30,65.4z"/>
			</g>
		</g>
	</g>
	<g>
		<path class="st0" d="M179.8,83.1l-14-40.2h-0.3c0.4,6,0.6,11.6,0.6,16.8v23.4H159V34.9h11.1l13.4,38.3h0.2l13.8-38.3h11.1v48.2
			H201V59.3c0-2.4,0.1-5.5,0.2-9.4c0.1-3.8,0.2-6.2,0.3-7h-0.3l-14.5,40.2H179.8z"/>
		<path class="st0" d="M235.7,83.7c-5.7,0-10.1-1.7-13.3-5c-3.2-3.3-4.8-7.9-4.8-13.7c0-6,1.5-10.6,4.4-14c3-3.4,7-5.1,12.2-5.1
			c4.8,0,8.6,1.5,11.4,4.4c2.8,2.9,4.2,6.9,4.2,12.1v4.2h-24.3c0.1,3.5,1.1,6.3,2.9,8.2c1.8,1.9,4.3,2.9,7.6,2.9
			c2.2,0,4.2-0.2,6-0.6c1.9-0.4,3.8-1.1,6-2v6.3c-1.9,0.9-3.8,1.5-5.7,1.9C240.4,83.6,238.2,83.7,235.7,83.7z M234.3,51.8
			c-2.5,0-4.4,0.8-5.9,2.3c-1.5,1.6-2.4,3.8-2.7,6.8h16.5c0-3-0.8-5.3-2.2-6.8C238.7,52.6,236.8,51.8,234.3,51.8z"/>
		<path class="st0" d="M270.4,83.7c-4.5,0-8.1-1.6-10.6-4.9c-2.5-3.3-3.8-7.9-3.8-13.9c0-6,1.3-10.6,3.9-14c2.6-3.3,6.2-5,10.7-5
			c4.8,0,8.4,1.8,10.9,5.3h0.4c-0.4-2.6-0.6-4.7-0.6-6.2V31.8h7.8v51.3H283l-1.4-4.8h-0.4C278.8,81.9,275.1,83.7,270.4,83.7z
			 M272.4,77.5c3.2,0,5.5-0.9,6.9-2.7c1.4-1.8,2.2-4.7,2.2-8.7V65c0-4.6-0.7-7.9-2.2-9.8c-1.5-1.9-3.8-2.9-7-2.9
			c-2.7,0-4.8,1.1-6.3,3.3c-1.5,2.2-2.2,5.4-2.2,9.4c0,4,0.7,7.1,2.1,9.2C267.4,76.4,269.6,77.5,272.4,77.5z"/>
		<path class="st0" d="M299,37c0-1.4,0.4-2.4,1.1-3.2s1.8-1.1,3.2-1.1c1.4,0,2.4,0.4,3.2,1.1s1.1,1.8,1.1,3.2c0,1.3-0.4,2.4-1.1,3.1
			c-0.8,0.8-1.8,1.1-3.2,1.1c-1.4,0-2.5-0.4-3.2-1.1C299.4,39.3,299,38.3,299,37z M307.2,83.1h-7.7V46.6h7.7V83.1z"/>
		<path class="st0" d="M340.5,83.1l-1.5-5.1h-0.3c-1.8,2.2-3.5,3.7-5.3,4.5c-1.8,0.8-4.1,1.2-6.8,1.2c-3.6,0-6.4-1-8.4-2.9
			c-2-1.9-3-4.7-3-8.2c0-3.8,1.4-6.6,4.2-8.5c2.8-1.9,7-3,12.7-3.1l6.3-0.2v-1.9c0-2.3-0.5-4.1-1.6-5.2c-1.1-1.2-2.8-1.7-5.1-1.7
			c-1.9,0-3.7,0.3-5.4,0.8c-1.7,0.5-3.4,1.2-4.9,1.9l-2.5-5.5c2-1,4.1-1.8,6.5-2.4c2.3-0.5,4.6-0.8,6.7-0.8c4.6,0,8.1,1,10.5,3
			c2.4,2,3.5,5.2,3.5,9.5v24.6H340.5z M328.9,77.8c2.8,0,5.1-0.8,6.8-2.4c1.7-1.6,2.6-3.8,2.6-6.6v-3.2l-4.7,0.2
			c-3.6,0.1-6.3,0.7-8,1.8c-1.7,1.1-2.5,2.8-2.5,5c0,1.6,0.5,2.9,1.4,3.8C325.6,77.4,327,77.8,328.9,77.8z"/>
	</g>
</g>
</svg>
