<?xml version="1.0" encoding="UTF-8"?>
<svg version="1.1" xmlns="http://www.w3.org/2000/svg" width="588" height="588">
<path d="M0 0 C194.04 0 388.08 0 588 0 C588 194.04 588 388.08 588 588 C393.96 588 199.92 588 0 588 C0 393.96 0 199.92 0 0 Z M38 242 C38 318.56 38 395.12 38 474 C206.63 474 375.26 474 549 474 C549 397.44 549 320.88 549 242 C380.37 242 211.74 242 38 242 Z " fill="#FEFEFE" transform="translate(0,0)"/>
<path d="M0 0 C9.9 0 19.8 0 30 0 C36.09937414 15.45731802 42.16738748 30.92668934 48.16500854 46.42379761 C48.84677713 48.18321025 49.53031109 49.94193983 50.21560669 51.69998169 C51.18373094 54.18486423 52.14537906 56.67216031 53.10546875 59.16015625 C53.39870026 59.90898071 53.69193176 60.65780518 53.99404907 61.42932129 C55.14508979 64.42934493 56 66.75736687 56 70 C56.66 70 57.32 70 58 70 C58.08612549 69.22253418 58.17225098 68.44506836 58.26098633 67.64404297 C59.25053766 62.76461015 61.01662717 58.32451346 62.82421875 53.6953125 C63.20810257 52.69853485 63.59198639 51.7017572 63.98750305 50.67477417 C65.21550618 47.48942787 66.45125481 44.30715543 67.6875 41.125 C68.90088172 37.98641821 70.11266149 34.84722146 71.32424927 31.70794678 C72.11133951 29.66965592 72.8994744 27.63176812 73.68869019 25.59429932 C76.26652116 18.93307068 78.8005364 12.25716265 81.25285339 5.5486145 C82.89312387 1.10687613 82.89312387 1.10687613 84 0 C86.07262076 -0.08767112 88.14820294 -0.10695873 90.22265625 -0.09765625 C91.48271484 -0.09443359 92.74277344 -0.09121094 94.04101562 -0.08789062 C95.38151109 -0.07953403 96.72200588 -0.07106907 98.0625 -0.0625 C99.40689942 -0.0574866 100.7513006 -0.05292342 102.09570312 -0.04882812 C105.39717941 -0.03699488 108.69856803 -0.02050971 112 0 C112 3.63 112 7.26 112 11 C108.7 11 105.4 11 102 11 C102 33.11 102 55.22 102 78 C105.3 78 108.6 78 112 78 C112 81.63 112 85.26 112 89 C107.46102295 89.02465392 102.92208457 89.04283789 98.38305664 89.05493164 C96.83780234 89.0599714 95.29255284 89.0668032 93.74731445 89.07543945 C91.53074971 89.08752076 89.31424782 89.09323173 87.09765625 89.09765625 C86.05545677 89.10539818 86.05545677 89.10539818 84.99220276 89.11329651 C83.3277067 89.11349277 81.66334501 89.06189129 80 89 C79 88 79 88 78.90234375 85.71484375 C78.91394531 84.79832031 78.92554688 83.88179688 78.9375 82.9375 C78.94652344 82.01839844 78.95554687 81.09929687 78.96484375 80.15234375 C78.97644531 79.44207031 78.98804688 78.73179687 79 78 C81.97 78 84.94 78 88 78 C88 59.52 88 41.04 88 22 C86.02 27.94 84.04 33.88 82 40 C80.53657424 43.9365891 79.05880965 47.84803568 77.51171875 51.75 C77.1230513 52.74080566 76.73438385 53.73161133 76.3339386 54.75244141 C75.12275816 57.8366727 73.90516505 60.91832407 72.6875 64 C71.85571716 66.11702935 71.02433462 68.23421602 70.19335938 70.3515625 C68.68808258 74.18059261 67.18277965 78.00960621 65.6706543 81.8359375 C65.37120407 82.59438965 65.07175385 83.3528418 64.76322937 84.13427734 C64 86 64 86 63 88 C58.05 88 53.1 88 48 88 C28.36885246 39.10655738 28.36885246 39.10655738 23 23 C22.67 41.15 22.34 59.3 22 78 C25.3 78 28.6 78 32 78 C32 81.63 32 85.26 32 89 C21.77 89 11.54 89 1 89 C1 85.37 1 81.74 1 78 C3.97 78 6.94 78 10 78 C10 55.89 10 33.78 10 11 C6.7 11 3.4 11 0 11 C0 7.37 0 3.74 0 0 Z " fill="#272324" transform="translate(438,131)"/>
<path d="M0 0 C10.89 0 21.78 0 33 0 C33 3.63 33 7.26 33 11 C30.03 11 27.06 11 24 11 C24.06719204 18.40185198 24.15707424 25.80318373 24.26245117 33.20458984 C24.29562736 35.72047738 24.32368184 38.23643803 24.34643555 40.75244141 C24.38011518 44.37694344 24.43243991 48.00077979 24.48828125 51.625 C24.49467117 52.74302002 24.5010611 53.86104004 24.50764465 55.01293945 C24.62590469 61.34886142 25.19552582 66.27607688 28 72 C35.55649601 78.139653 43.76296579 77.62670144 53 77 C58.06230012 75.84647153 60.34694851 74.01212671 63.16503906 69.64453125 C65.82052498 64.01471017 65.60290209 58.30811735 65.609375 52.1875 C65.62591125 50.97803711 65.64244751 49.76857422 65.65948486 48.52246094 C65.70784341 44.68158832 65.72931006 40.84111136 65.75 37 C65.77816964 34.38669898 65.80809845 31.77341628 65.83984375 29.16015625 C65.91359994 22.77347007 65.96324939 16.38700198 66 10 C62.7 10 59.4 10 56 10 C56 6.7 56 3.4 56 0 C66.89 0 77.78 0 89 0 C89 3.63 89 7.26 89 11 C86.03 11 83.06 11 80 11 C80.00999275 11.95934196 80.00999275 11.95934196 80.02018738 12.93806458 C80.08693448 19.63858984 80.131963 26.33901952 80.16479492 33.03979492 C80.17981335 35.5352767 80.20023414 38.0307324 80.22631836 40.52612305 C80.26300775 44.12815825 80.27979647 47.72984224 80.29296875 51.33203125 C80.30845261 52.43456741 80.32393646 53.53710358 80.33988953 54.67304993 C80.34190942 64.12448106 79.19992959 73.67802305 73 81.2109375 C62.55256994 90.55649017 49.33252 90.58140371 36.13964844 90.13183594 C28.02141851 89.63162551 20.59545913 87.06491942 15 81 C9.18114049 72.20641181 8.84536138 63.72287467 8.8671875 53.5 C8.86623077 52.50548828 8.86527405 51.51097656 8.86428833 50.48632812 C8.86361041 48.39192644 8.86543753 46.2975226 8.86962891 44.203125 C8.87498261 41.01036833 8.86967069 37.81775233 8.86328125 34.625 C8.8639421 32.58333303 8.86522341 30.54166614 8.8671875 28.5 C8.86516327 27.55189453 8.86313904 26.60378906 8.86105347 25.62695312 C8.87855065 20.64321755 9.15054481 15.91283714 10 11 C6.7 11 3.4 11 0 11 C0 7.37 0 3.74 0 0 Z " fill="#282425" transform="translate(340,131)"/>
<path d="M0 0 C20.46 0 40.92 0 62 0 C62 7.59 62 15.18 62 23 C58.04 23 54.08 23 50 23 C50 19.04 50 15.08 50 11 C41.42 11 32.84 11 24 11 C24 19.91 24 28.82 24 38 C32.25 38 40.5 38 49 38 C49 41.63 49 45.26 49 49 C40.75 49 32.5 49 24 49 C24 58.57 24 68.14 24 78 C32.58 78 41.16 78 50 78 C50.33 73.38 50.66 68.76 51 64 C54.96 64 58.92 64 63 64 C63.02727345 66.66673742 63.04696948 69.33318869 63.0625 72 C63.07087891 72.74378906 63.07925781 73.48757812 63.08789062 74.25390625 C63.09111328 74.99511719 63.09433594 75.73632812 63.09765625 76.5 C63.10289307 77.1703125 63.10812988 77.840625 63.11352539 78.53125 C62.95232216 82.03681363 62.43527114 85.51783087 62 89 C41.54 89 21.08 89 0 89 C0 85.37 0 81.74 0 78 C2.97 78 5.94 78 9 78 C8.99476318 77.17838379 8.98952637 76.35676758 8.98413086 75.51025391 C8.86664476 53.98501552 9.23974164 32.51167217 10 11 C6.7 11 3.4 11 0 11 C0 7.37 0 3.74 0 0 Z " fill="#272324" transform="translate(268,131)"/>
<path d="M0 0 C5.26526855 -0.07457346 10.53022455 -0.12880098 15.79589844 -0.16479492 C17.58436443 -0.17981184 19.37279403 -0.20023158 21.16113281 -0.22631836 C23.74293031 -0.26301615 26.32423779 -0.27979745 28.90625 -0.29296875 C29.69616333 -0.30845261 30.48607666 -0.32393646 31.29992676 -0.33988953 C37.46861138 -0.34172827 43.20560849 0.61919964 48.05859375 4.75390625 C48.74115234 5.64916016 48.74115234 5.64916016 49.4375 6.5625 C49.91058594 7.16191406 50.38367188 7.76132812 50.87109375 8.37890625 C54.29092083 13.2897306 53.4710165 19.24686987 53 25 C51.74231191 29.8413415 49.71545391 32.88065957 45.4375 35.5 C42 37 42 37 39 37 C39 37.66 39 38.32 39 39 C39.59925293 39.24169922 40.19850586 39.48339844 40.81591797 39.73242188 C43.444217 41.25781072 44.37543785 42.69481275 45.9453125 45.28125 C46.72455078 46.54388672 46.72455078 46.54388672 47.51953125 47.83203125 C48.04933594 48.71246094 48.57914063 49.59289062 49.125 50.5 C50.18790802 52.24092608 51.25291672 53.98057184 52.3203125 55.71875 C52.78711426 56.49154297 53.25391602 57.26433594 53.73486328 58.06054688 C55.49956961 60.76583963 56.43149098 61.86464071 59.625 62.625 C60.40875 62.74875 61.1925 62.8725 62 63 C62 65.97 62 68.94 62 72 C50.80434783 72.39130435 50.80434783 72.39130435 47 70 C42.44937605 65.05435661 39.18701407 59.53964837 35.8125 53.75 C34.75916786 51.95156591 33.70329703 50.15461559 32.64453125 48.359375 C32.18409424 47.57014648 31.72365723 46.78091797 31.24926758 45.96777344 C30.02203133 43.87671577 30.02203133 43.87671577 28 42 C25.03 41.67 22.06 41.34 19 41 C19 48.26 19 55.52 19 63 C21.64 63 24.28 63 27 63 C27 65.97 27 68.94 27 72 C18.09 72 9.18 72 0 72 C0 69.03 0 66.06 0 63 C2.31 63 4.62 63 7 63 C7 45.18 7 27.36 7 9 C4.69 9 2.38 9 0 9 C0 6.03 0 3.06 0 0 Z " fill="#282425" transform="translate(108,38)"/>
<path d="M0 0 C0.99 0.33 1.98 0.66 3 1 C3 8.59 3 16.18 3 24 C-1.29 24 -5.58 24 -10 24 C-10.33 19.38 -10.66 14.76 -11 10 C-22.03360218 7.99389051 -33.79420455 7.66295568 -43.6875 13.5 C-49.09538428 17.35465657 -52.79345248 22.81779541 -54.63671875 29.20703125 C-56.235306 41.49724503 -56.57757768 54.71129595 -49.45703125 65.29296875 C-44.48094778 71.54438711 -38.80685548 74.65131681 -31 76 C-29.38038502 76.07649781 -27.75810555 76.10811681 -26.13671875 76.09765625 C-25.25048828 76.09443359 -24.36425781 76.09121094 -23.45117188 76.08789062 C-22.53916016 76.07951172 -21.62714844 76.07113281 -20.6875 76.0625 C-19.75615234 76.05798828 -18.82480469 76.05347656 -17.86523438 76.04882812 C-15.57675627 76.03709234 -13.28841192 76.02067363 -11 76 C-11.01160156 74.85660156 -11.02320313 73.71320313 -11.03515625 72.53515625 C-11.04453288 71.04427246 -11.05363321 69.55338691 -11.0625 68.0625 C-11.07087891 67.30775391 -11.07925781 66.55300781 -11.08789062 65.77539062 C-11.09652441 63.85005687 -11.05224333 61.92464419 -11 60 C-10.67 59.67 -10.34 59.34 -10 59 C-6.04 59 -2.08 59 2 59 C2 67.25 2 75.5 2 84 C-15.89807374 88.47451844 -35.58613365 91.74019139 -52.4375 82.125 C-61.51166072 76.22028297 -69.06023251 67.32348958 -71.55712891 56.609375 C-73.99990969 42.21662912 -73.18705066 27.60337863 -65.203125 15.2109375 C-50.59400058 -4.59903522 -22.18176176 -8.06229759 0 0 Z " fill="#272324" transform="translate(253,133)"/>
<path d="M0 0 C1.87075195 -0.01836914 1.87075195 -0.01836914 3.77929688 -0.03710938 C15.4473984 -0.05550365 26.25356534 0.71975663 35.375 8.625 C42.23235016 16.6578959 42.32438713 24.97085568 41.79345703 35.13183594 C41.0093063 42.1112748 36.84991799 47.80281191 31.5625 52.1875 C25.01881931 57.16638748 18.77053466 58.50490563 10.66015625 58.3828125 C9.9375914 58.3799826 9.21502655 58.37715271 8.4705658 58.37423706 C6.18853384 58.36314386 3.90691103 58.33806088 1.625 58.3125 C0.06706301 58.30245611 -1.49088021 58.29333274 -3.04882812 58.28515625 C-6.84520699 58.26324033 -10.6412844 58.22878738 -14.4375 58.1875 C-14.4375 55.8775 -14.4375 53.5675 -14.4375 51.1875 C-12.4575 51.1875 -10.4775 51.1875 -8.4375 51.1875 C-8.4375 36.9975 -8.4375 22.8075 -8.4375 8.1875 C-10.0875 8.1875 -11.7375 8.1875 -13.4375 8.1875 C-14.4375 7.1875 -14.4375 7.1875 -14.5625 4.1875 C-14.2776807 -2.64816331 -5.33110551 0.00268029 0 0 Z " fill="#2E2A2B" transform="translate(371.4375,492.8125)"/>
<path d="M0 0 C6.02797939 4.16245385 10.31686478 9.18225823 12.33984375 16.29296875 C14.25833838 27.02702548 13.14504055 36.88957888 7.41015625 46.21875 C2.23997992 52.99433561 -4.93586441 56.04750742 -13.20703125 57.44921875 C-21.23006409 57.92239893 -27.64108024 55.51805702 -34.1875 50.9375 C-39.95214977 45.20636563 -42.41941484 39.25403343 -42.56787109 31.19824219 C-42.53564414 16.1336054 -42.53564414 16.1336054 -38.1875 9.9375 C-37.775 9.3084375 -37.3625 8.679375 -36.9375 8.03125 C-28.80708578 -2.87089634 -12.13231885 -6.18953894 0 0 Z " fill="#292627" transform="translate(130.1875,495.0625)"/>
<path d="M0 0 C10.56 0 21.12 0 32 0 C32 3.63 32 7.26 32 11 C30.02 11.33 28.04 11.66 26 12 C28.20774591 15.00043269 30.41630623 18.000265 32.625 21 C33.55119141 22.25876953 33.55119141 22.25876953 34.49609375 23.54296875 C35.72916366 25.21734789 36.963855 26.89053423 38.20019531 28.5625 C39.38184648 30.16282627 40.55845523 31.76689053 41.72949219 33.375 C42.25961914 34.096875 42.78974609 34.81875 43.3359375 35.5625 C44.03662354 36.52349609 44.03662354 36.52349609 44.75146484 37.50390625 C45.9483009 39.14088882 45.9483009 39.14088882 48 40 C48.27545654 39.41968018 48.55091309 38.83936035 48.8347168 38.24145508 C49.96842025 36.06074454 51.22017962 34.13729102 52.64453125 32.13671875 C53.15693359 31.41419922 53.66933594 30.69167969 54.19726562 29.94726562 C54.73029297 29.20154297 55.26332031 28.45582031 55.8125 27.6875 C56.33392578 26.95337891 56.85535156 26.21925781 57.39257812 25.46289062 C58.92529525 23.30637102 60.46192768 21.15270258 62 19 C62.4954834 18.30600098 62.9909668 17.61200195 63.50146484 16.89697266 C64.66725603 15.26437188 65.8335677 13.63214279 67 12 C64.36 11.67 61.72 11.34 59 11 C59 7.37 59 3.74 59 0 C69.23 0 79.46 0 90 0 C90 3.63 90 7.26 90 11 C88.81148438 10.99613281 87.62296875 10.99226562 86.3984375 10.98828125 C82.59423669 11.47447585 81.07135759 12.53065038 78.7265625 15.54296875 C77.66803772 17.07438379 76.6352414 18.62381236 75.625 20.1875 C75.07263672 20.99743408 74.52027344 21.80736816 73.95117188 22.6418457 C72.82446316 24.29405942 71.7068798 25.95253399 70.59863281 27.6171875 C68.30899989 31.0299574 65.90705747 34.35710528 63.5 37.6875 C61.99973018 39.79147429 60.49972265 41.89563565 59 44 C58.32904297 44.85972412 58.32904297 44.85972412 57.64453125 45.73681641 C52.42026393 52.56840666 52.78207746 59.53735533 52.4375 67.875 C52.37272461 69.33679688 52.37272461 69.33679688 52.30664062 70.828125 C52.2011781 73.21860887 52.10014571 75.60928748 52 78 C55.3 78 58.6 78 62 78 C62.09765625 85.71484375 62.09765625 85.71484375 62 88 C61 89 61 89 57.94897461 89.11352539 C56.60008729 89.11336634 55.25119386 89.10767612 53.90234375 89.09765625 C52.83905602 89.09553383 52.83905602 89.09553383 51.75428772 89.09336853 C49.48198288 89.08775443 47.20977525 89.07519963 44.9375 89.0625 C43.40039204 89.05748681 41.86328255 89.05292359 40.32617188 89.04882812 C36.55074358 89.03778042 32.77538829 89.02050641 29 89 C29 85.37 29 81.74 29 78 C31.97 78 34.94 78 38 78 C39.00734565 61.17883681 38.26569766 49.4821492 27.0078125 36.5390625 C26.35071289 35.80848633 25.69361328 35.07791016 25.01660156 34.32519531 C21.45777524 30.22177378 18.35746807 25.78078842 15.1875 21.375 C14.01700841 19.77667571 12.84406746 18.18014041 11.66796875 16.5859375 C10.92969849 15.58119385 10.92969849 15.58119385 10.17651367 14.55615234 C8.63053812 12.37506689 8.63053812 12.37506689 6.15234375 11.68359375 C5.42144531 11.60238281 4.69054687 11.52117187 3.9375 11.4375 C2.638125 11.293125 1.33875 11.14875 0 11 C0 7.37 0 3.74 0 0 Z " fill="#272324" transform="translate(93,131)"/>
<path d="M0 0 C8.58 0 17.16 0 26 0 C26 2.64 26 5.28 26 8 C23.69 8 21.38 8 19 8 C19 15.59 19 23.18 19 31 C29.89 31 40.78 31 52 31 C52 23.41 52 15.82 52 8 C49.69 8 47.38 8 45 8 C45 5.36 45 2.72 45 0 C53.58 0 62.16 0 71 0 C71 2.64 71 5.28 71 8 C68.69 8 66.38 8 64 8 C63.67 26.15 63.34 44.3 63 63 C65.64 63 68.28 63 71 63 C71 65.97 71 68.94 71 72 C62.42 72 53.84 72 45 72 C45 69.03 45 66.06 45 63 C47.31 63 49.62 63 52 63 C52 55.41 52 47.82 52 40 C41.11 40 30.22 40 19 40 C19 47.59 19 55.18 19 63 C21.31 63 23.62 63 26 63 C26 65.97 26 68.94 26 72 C17.42 72 8.84 72 0 72 C0 69.03 0 66.06 0 63 C2.31 63 4.62 63 7 63 C7 44.85 7 26.7 7 8 C4.69 8 2.38 8 0 8 C0 5.36 0 2.72 0 0 Z " fill="#262223" transform="translate(479,38)"/>
<path d="M0 0 C1.79244141 0.01740234 1.79244141 0.01740234 3.62109375 0.03515625 C5.41740234 0.04869141 5.41740234 0.04869141 7.25 0.0625 C8.17683594 0.07410156 9.10367188 0.08570313 10.05859375 0.09765625 C13.48719763 7.48299228 16.38175083 15.04147986 19.24609375 22.66015625 C19.73022903 23.93345231 20.21485507 25.20656187 20.69995117 26.47949219 C23.07391152 32.72483175 25.38497451 38.98086914 27.56640625 45.296875 C27.95675049 46.40409912 28.34709473 47.51132324 28.74926758 48.65209961 C29.48343157 50.74338851 30.19767417 52.84180431 30.8894043 54.94750977 C31.79412846 57.49754795 32.62822953 59.80089655 34.05859375 62.09765625 C37.17653552 63.41866686 37.17653552 63.41866686 40.05859375 63.09765625 C40.05859375 66.06765625 40.05859375 69.03765625 40.05859375 72.09765625 C31.47859375 72.09765625 22.89859375 72.09765625 14.05859375 72.09765625 C14.05859375 69.12765625 14.05859375 66.15765625 14.05859375 63.09765625 C16.03859375 63.09765625 18.01859375 63.09765625 20.05859375 63.09765625 C19.5171875 61.50824219 19.5171875 61.50824219 18.96484375 59.88671875 C18.49593582 58.49875126 18.02719444 57.1107275 17.55859375 55.72265625 C17.32011719 55.02398437 17.08164063 54.3253125 16.8359375 53.60546875 C15.05859375 48.32421875 15.05859375 48.32421875 15.05859375 46.09765625 C6.47859375 46.09765625 -2.10140625 46.09765625 -10.94140625 46.09765625 C-11.93140625 49.39765625 -12.92140625 52.69765625 -13.94140625 56.09765625 C-14.9026002 58.44724146 -15.88714881 60.78833044 -16.94140625 63.09765625 C-14.63140625 63.09765625 -12.32140625 63.09765625 -9.94140625 63.09765625 C-9.94140625 66.06765625 -9.94140625 69.03765625 -9.94140625 72.09765625 C-18.19140625 72.09765625 -26.44140625 72.09765625 -34.94140625 72.09765625 C-34.94140625 69.12765625 -34.94140625 66.15765625 -34.94140625 63.09765625 C-34.03438965 63.10514893 -33.12737305 63.1126416 -32.19287109 63.12036133 C-28.97393133 62.45844507 -28.97393133 62.45844507 -27.80010986 60.55404663 C-26.7193188 58.31551685 -25.80297825 56.05745086 -24.91796875 53.734375 C-24.56809906 52.87318558 -24.21822937 52.01199615 -23.85775757 51.12471008 C-22.73797243 48.3533393 -21.651921 45.57010464 -20.56640625 42.78515625 C-19.84463939 40.9828448 -19.12070129 39.18140125 -18.39453125 37.38085938 C-16.58584139 32.88082068 -14.80239295 28.37129614 -13.02746582 23.85784912 C-11.18279264 19.16965898 -9.32640162 14.48619484 -7.46484375 9.8046875 C-6.95505478 8.51228401 -6.95505478 8.51228401 -6.43496704 7.19377136 C-6.12175507 6.40642105 -5.80854309 5.61907074 -5.48583984 4.80786133 C-5.21081635 4.11324295 -4.93579285 3.41862457 -4.6524353 2.70295715 C-3.42494222 -0.06837229 -3.25675526 0.108126 0 0 Z " fill="#2A2627" transform="translate(207.94140625,37.90234375)"/>
<path d="M0 0 C10.89 0 21.78 0 33 0 C33 3.63 33 7.26 33 11 C30.03 11 27.06 11 24 11 C24 33.11 24 55.22 24 78 C32.58 78 41.16 78 50 78 C50 73.05 50 68.1 50 63 C54.29 63 58.58 63 63 63 C62.85990884 67.14610213 62.71321247 71.29178241 62.5625 75.4375 C62.52318359 76.62150391 62.48386719 77.80550781 62.44335938 79.02539062 C62.38051758 80.71245117 62.38051758 80.71245117 62.31640625 82.43359375 C62.27974854 83.47572021 62.24309082 84.51784668 62.20532227 85.59155273 C62 88 62 88 61 89 C59.09756238 89.09391296 57.19161541 89.11743658 55.28686523 89.11352539 C54.0656749 89.11344986 52.84448456 89.11337433 51.58628845 89.11329651 C50.24372314 89.10818911 48.90115825 89.10297311 47.55859375 89.09765625 C46.19238842 89.09579199 44.82618243 89.09436813 43.4599762 89.09336853 C39.85798305 89.08954394 36.25603 89.07971417 32.65405273 89.06866455 C28.98096255 89.05844916 25.30786591 89.05387064 21.63476562 89.04882812 C14.42315877 89.03809184 7.211585 89.02101614 0 89 C0 85.37 0 81.74 0 78 C2.97 78 5.94 78 9 78 C9 55.89 9 33.78 9 11 C6.03 11 3.06 11 0 11 C0 7.37 0 3.74 0 0 Z " fill="#2B2728" transform="translate(37,131)"/>
<path d="M0 0 C6.27 0 12.54 0 19 0 C24.74259755 14.30428845 30.40234194 28.63841081 36 43 C38.03010956 40.96989044 38.59252359 39.84746872 39.58813477 37.22460938 C39.88506729 36.45040649 40.18199982 35.67620361 40.4879303 34.87854004 C40.80257736 34.04205933 41.11722443 33.20557861 41.44140625 32.34375 C41.93301491 31.05664124 41.93301491 31.05664124 42.43455505 29.74353027 C43.48226298 26.99758264 44.52259809 24.24891218 45.5625 21.5 C46.60745868 18.7516747 47.6539051 16.00392209 48.70115662 13.25646973 C49.35277583 11.54543335 50.00277397 9.83377858 50.65101624 8.12145996 C50.9447966 7.34725708 51.23857697 6.5730542 51.54125977 5.77539062 C51.79948013 5.09303345 52.0577005 4.41067627 52.32374573 3.7076416 C53 2 53 2 54 0 C59.94 0 65.88 0 72 0 C72 2.64 72 5.28 72 8 C69.69 8 67.38 8 65 8 C65.495 9.485 65.495 9.485 66 11 C66.08544291 12.33528807 66.11774625 13.67443888 66.11352539 15.01245117 C66.11341209 16.2133564 66.11341209 16.2133564 66.11329651 17.43852234 C66.10813522 18.29798965 66.10297394 19.15745697 66.09765625 20.04296875 C66.0962413 20.9265657 66.09482635 21.81016266 66.09336853 22.72053528 C66.08777069 25.54289128 66.07521861 28.36516797 66.0625 31.1875 C66.05748472 33.10091031 66.05292186 35.01432187 66.04882812 36.92773438 C66.03780197 41.61852014 66.02053883 46.30924663 66 51 C67.98 51 69.96 51 72 51 C72 53.31 72 55.62 72 58 C65.07 58 58.14 58 51 58 C51 55.69 51 53.38 51 51 C52.98 51 54.96 51 57 51 C56.67 39.78 56.34 28.56 56 17 C55.195625 19.145 54.39125 21.29 53.5625 23.5 C53.2826123 24.24515869 53.00272461 24.99031738 52.71435547 25.75805664 C51.01163372 30.29246718 49.31902274 34.83051558 47.6328125 39.37109375 C47.22861084 40.45648437 46.82440918 41.541875 46.40795898 42.66015625 C45.59801369 44.83513237 44.79021309 47.01090843 43.98461914 49.1875 C43.61199951 50.18652344 43.23937988 51.18554688 42.85546875 52.21484375 C42.52184326 53.11323975 42.18821777 54.01163574 41.84448242 54.93725586 C41 57 41 57 40 58 C36.99996555 58.14177857 34.00242765 58.04228771 31 58 C26.93096846 49.43414689 23.50692136 40.68839906 20.1875 31.8125 C18.475625 27.254375 16.76375 22.69625 15 18 C14.67 28.89 14.34 39.78 14 51 C15.98 51 17.96 51 20 51 C20 53.31 20 55.62 20 58 C13.4 58 6.8 58 0 58 C0 55.69 0 53.38 0 51 C1.98 51 3.96 51 6 51 C6 36.81 6 22.62 6 8 C4.02 8 2.04 8 0 8 C0 5.36 0 2.72 0 0 Z " fill="#2C2829" transform="translate(478,493)"/>
<path d="M0 0 C0 6.27 0 12.54 0 19 C-3.63 19 -7.26 19 -11 19 C-11 15.04 -11 11.08 -11 7 C-26.43924792 5.77111902 -26.43924792 5.77111902 -40 12 C-46.46195234 19.3895053 -47.4621978 27.95779043 -47.3203125 37.484375 C-46.68971191 44.40560095 -44.12103798 51.16346413 -39 56 C-33.21594933 59.79675446 -28.31134331 60.53842822 -21.5 60.25 C-20.67757812 60.23195312 -19.85515625 60.21390625 -19.0078125 60.1953125 C-17.00469196 60.1487283 -15.00218179 60.07700699 -13 60 C-12.67 55.05 -12.34 50.1 -12 45 C-14.64 45 -17.28 45 -20 45 C-20 42.03 -20 39.06 -20 36 C-11.09 36 -2.18 36 7 36 C7 38.97 7 41.94 7 45 C4.36 45 1.72 45 -1 45 C-1 52.59 -1 60.18 -1 68 C-15.02413194 71.78178839 -30.10387189 73.54895413 -43.53125 66.7109375 C-51.74855128 61.5888197 -58.14191064 54.22316856 -60.58984375 44.70703125 C-62.47689224 32.25251119 -61.21343078 20.49789302 -53.80078125 10.10546875 C-39.98903066 -6.04319408 -18.87590024 -5.26769309 0 0 Z " fill="#282425" transform="translate(96,40)"/>
<path d="M0 0 C0 5.28 0 10.56 0 16 C-3.96 16 -7.92 16 -12 16 C-12 13.03 -12 10.06 -12 7 C-23.4613634 6.25717184 -23.4613634 6.25717184 -34 10 C-36.34549674 13.51824511 -36.57991403 14.85775694 -36 19 C-31.35395026 25.18511384 -25.13860061 25.90138958 -18.01171875 27.58398438 C-10.52418384 29.49626847 -3.88219347 32.41909296 1.0625 38.5625 C2.73827189 44.70699693 3.3664644 51.42919796 1.05078125 57.48046875 C-2.5867862 63.59663105 -7.52014083 67.16506161 -14 70 C-24.7739897 72.70750175 -39.90325067 72.04837467 -50 67 C-50.02684312 64.18743719 -50.04676188 61.37512759 -50.0625 58.5625 C-50.07087891 57.76005859 -50.07925781 56.95761719 -50.08789062 56.13085938 C-50.0965143 54.08704779 -50.0522815 52.04316098 -50 50 C-49 49 -49 49 -46.49609375 48.90234375 C-45.48675781 48.91394531 -44.47742188 48.92554688 -43.4375 48.9375 C-42.42558594 48.94652344 -41.41367187 48.95554688 -40.37109375 48.96484375 C-39.19740234 48.98224609 -39.19740234 48.98224609 -38 49 C-37.67 52.3 -37.34 55.6 -37 59 C-33.42687005 60.19104332 -30.45446678 60.20528823 -26.6875 60.25 C-24.74423828 60.28867188 -24.74423828 60.28867188 -22.76171875 60.328125 C-18.77133108 59.9800538 -16.39460134 59.07645779 -13 57 C-11.04542905 54.51236425 -10.95336259 52.6735381 -10.5 49.5 C-10.62408787 45.85801164 -10.62408787 45.85801164 -13.41796875 43.9609375 C-17.57204302 41.4093069 -22.13875977 40.36169415 -26.8125 39.125 C-43.01807843 34.51806299 -43.01807843 34.51806299 -48.0625 26.875 C-49.66232291 20.26239864 -50.33595683 13.82606252 -47.375 7.5625 C-34.62974049 -6.18896421 -16.98698805 -5.22676555 0 0 Z " fill="#2A2627" transform="translate(397,40)"/>
<path d="M0 0 C0 6.27 0 12.54 0 19 C-3.63 19 -7.26 19 -11 19 C-11 15.04 -11 11.08 -11 7 C-26.45072348 5.75974522 -26.45072348 5.75974522 -40 12 C-47.26264333 20.29802017 -47.9592659 29.22864008 -47.26953125 39.96386719 C-46.46747325 46.02289232 -43.48015246 51.5251812 -39.18359375 55.8125 C-34.84047391 59.11439673 -30.99775484 60.13569825 -25.671875 60.09765625 C-24.87265625 60.09443359 -24.0734375 60.09121094 -23.25 60.08789062 C-22.425 60.07951172 -21.6 60.07113281 -20.75 60.0625 C-19.90953125 60.05798828 -19.0690625 60.05347656 -18.203125 60.04882812 C-16.13538599 60.03707961 -14.06768376 60.01914522 -12 60 C-11.67 56.04 -11.34 52.08 -11 48 C-7.7 48 -4.4 48 -1 48 C-1 54.6 -1 61.2 -1 68 C-16.84669262 71.96167316 -31.42820898 73.38311915 -46.25 65.3125 C-53.52750613 60.65854624 -57.60623063 54.40596712 -60.3046875 46.25390625 C-62.78949674 34.62555738 -61.77692447 23.08402602 -55.6796875 12.765625 C-42.6924177 -6.11204585 -19.94955517 -5.63281558 0 0 Z " fill="#282425" transform="translate(468,40)"/>
<path d="M0 0 C1.15177734 -0.020625 2.30355469 -0.04125 3.49023438 -0.0625 C11.93082503 -0.10080104 19.94002541 0.21894983 26.625 5.8125 C30.46380828 10.64196848 30.02788347 15.25924554 29.5625 21.25 C28.253152 25.10913095 27.3052257 26.69295573 24.0625 29.125 C21.5625 30.25 21.5625 30.25 18.5625 30.25 C18.91441406 30.69988281 19.26632812 31.14976562 19.62890625 31.61328125 C23.39507421 36.52011627 26.6468094 41.5798181 29.75390625 46.9296875 C31.82164682 49.58246914 33.37955412 50.30327764 36.5625 51.25 C36.5625 53.56 36.5625 55.87 36.5625 58.25 C35.00247572 58.3863128 33.43892824 58.48259126 31.875 58.5625 C31.00488281 58.62050781 30.13476562 58.67851563 29.23828125 58.73828125 C25.34944542 58.02863968 24.06966371 56.26257608 21.5625 53.25 C19.87849107 50.77403881 18.36375061 48.22207091 16.875 45.625 C13.8215671 40.37450477 13.8215671 40.37450477 10.5625 35.25 C7.9225 34.92 5.2825 34.59 2.5625 34.25 C2.5625 39.86 2.5625 45.47 2.5625 51.25 C4.5425 51.25 6.5225 51.25 8.5625 51.25 C8.5625 53.56 8.5625 55.87 8.5625 58.25 C1.3025 58.25 -5.9575 58.25 -13.4375 58.25 C-13.4375 55.94 -13.4375 53.63 -13.4375 51.25 C-11.4575 51.25 -9.4775 51.25 -7.4375 51.25 C-7.4375 37.06 -7.4375 22.87 -7.4375 8.25 C-9.0875 8.25 -10.7375 8.25 -12.4375 8.25 C-13.4375 7.25 -13.4375 7.25 -13.5625 4.25 C-13.2848704 -2.41311029 -5.25111047 0.02281851 0 0 Z " fill="#2E2A2B" transform="translate(314.4375,492.75)"/>
<path d="M0 0 C4.29153445 -0.08807085 8.58283224 -0.14074921 12.875 -0.1875 C14.07898438 -0.21263672 15.28296875 -0.23777344 16.5234375 -0.26367188 C33.07079748 -0.39856883 33.07079748 -0.39856883 38.67944336 4.45263672 C42.21107969 8.563424 43.30306171 11.43894391 43.21484375 16.83984375 C42.73202204 21.6943966 40.95082499 25.07294564 37.5 28.4375 C35 30 35 30 32 30 C32.43570313 30.60585938 32.87140625 31.21171875 33.3203125 31.8359375 C37.05792341 37.09448099 40.43445482 42.3564661 43.4453125 48.06640625 C44.89424821 50.24720297 44.89424821 50.24720297 47.6796875 50.77734375 C48.44539063 50.85082031 49.21109375 50.92429687 50 51 C50 53.31 50 55.62 50 58 C48.46089264 58.13687714 46.91812705 58.23284005 45.375 58.3125 C44.51648438 58.37050781 43.65796875 58.42851563 42.7734375 58.48828125 C38.86506068 57.80018674 36.57519138 55.87958651 34 53 C32.07076257 50.20806454 30.43250784 47.29220241 28.8125 44.3125 C27.97114578 42.7842739 27.12372961 41.25936543 26.26953125 39.73828125 C25.90448486 39.06837158 25.53943848 38.39846191 25.16333008 37.70825195 C23.94835894 35.69438275 23.94835894 35.69438275 21 34 C19.02 33.67 17.04 33.34 15 33 C15 38.94 15 44.88 15 51 C17.31 51 19.62 51 22 51 C22 53.31 22 55.62 22 58 C14.74 58 7.48 58 0 58 C0 55.69 0 53.38 0 51 C1.98 51 3.96 51 6 51 C6 36.81 6 22.62 6 8 C4.02 8 2.04 8 0 8 C0 5.36 0 2.72 0 0 Z " fill="#2A2627" transform="translate(37,493)"/>
<path d="M0 0 C16.83 0 33.66 0 51 0 C51 6.27 51 12.54 51 19 C47.7 19 44.4 19 41 19 C41 15.7 41 12.4 41 9 C34.07 9 27.14 9 20 9 C20 15.93 20 22.86 20 30 C27.26 30 34.52 30 42 30 C42 33.3 42 36.6 42 40 C34.74 40 27.48 40 20 40 C20 47.59 20 55.18 20 63 C22.64 63 25.28 63 28 63 C28 65.97 28 68.94 28 72 C19.09 72 10.18 72 1 72 C1 69.03 1 66.06 1 63 C3.31 63 5.62 63 8 63 C8 44.85 8 26.7 8 8 C5.36 8 2.72 8 0 8 C0 5.36 0 2.72 0 0 Z " fill="#2B2728" transform="translate(251,38)"/>
<path d="M0 0 C3.63 0 7.26 0 11 0 C11.58007812 1.48628906 12.16015625 2.97257812 12.7578125 4.50390625 C13.54675743 6.52348343 14.33582859 8.54301131 15.125 10.5625 C15.73915771 12.13475342 15.73915771 12.13475342 16.36572266 13.73876953 C18.42854962 19.01205824 20.5046426 24.27883865 22.62792969 29.52807617 C29 45.28125 29 45.28125 29 50 C30.98 50 32.96 50 35 50 C35 52.31 35 54.62 35 57 C28.07 57 21.14 57 14 57 C14 54.69 14 52.38 14 50 C15.32 50 16.64 50 18 50 C16.68 45.71 15.36 41.42 14 37 C7.4 37 0.8 37 -6 37 C-7.65 41.29 -9.3 45.58 -11 50 C-9.02 50 -7.04 50 -5 50 C-5 52.31 -5 54.62 -5 57 C-11.6 57 -18.2 57 -25 57 C-25 54.69 -25 52.38 -25 50 C-23.35 50 -21.7 50 -20 50 C-19.66097656 48.72898437 -19.32195312 47.45796875 -18.97265625 46.1484375 C-16.70051673 38.57819697 -13.54286767 31.358153 -10.47485352 24.08447266 C-9.43193248 21.61179991 -8.39602111 19.1362819 -7.36132812 16.66015625 C-6.69831618 15.07795753 -6.03491853 13.49592036 -5.37109375 11.9140625 C-5.06272079 11.17862213 -4.75434784 10.44318176 -4.43663025 9.68545532 C-3.04839758 6.39659984 -1.59765015 3.19530031 0 0 Z " fill="#282526" transform="translate(438,494)"/>
<path d="M0 0 C13.2 0 26.4 0 40 0 C40 5.28 40 10.56 40 16 C37.69 16 35.38 16 33 16 C33 13.36 33 10.72 33 8 C27.39 8 21.78 8 16 8 C16 13.61 16 19.22 16 25 C21.28 25 26.56 25 32 25 C32 27.31 32 29.62 32 32 C26.72 32 21.44 32 16 32 C16 38.27 16 44.54 16 51 C21.61 51 27.22 51 33 51 C33 48.03 33 45.06 33 42 C35.64 42 38.28 42 41 42 C41 47.28 41 52.56 41 58 C27.47 58 13.94 58 0 58 C0 55.69 0 53.38 0 51 C1.98 51 3.96 51 6 51 C6 36.81 6 22.62 6 8 C4.02 8 2.04 8 0 8 C0 5.36 0 2.72 0 0 Z " fill="#2F2B2C" transform="translate(253,493)"/>
<path d="M0 0 C4.56893694 2.12691892 6.84617435 4.46563021 9 9 C11.35575447 16.03384845 11.16556718 25.8497094 9.1640625 32.9765625 C6.84033686 37.63960926 3.94216768 40.43158182 -0.88671875 42.4140625 C-5.6256948 43.7280115 -9.49131194 43.53247814 -14.1875 41.875 C-18.57555986 38.94962676 -21.23316641 35.78927837 -23.3125 30.9375 C-24.67207823 23.15082466 -25.6137888 14.72123112 -21.3046875 7.72265625 C-20.87414062 7.15417969 -20.44359375 6.58570313 -20 6 C-19.54882812 5.40058594 -19.09765625 4.80117188 -18.6328125 4.18359375 C-13.47831362 -1.34274709 -7.11325464 -1.07110784 0 0 Z " fill="#FCFCFC" transform="translate(122,501)"/>
<path d="M0 0 C19.66027397 0 19.66027397 0 25.546875 5.42578125 C30.51426185 10.82572145 30.35017677 16.92580814 30.28125 23.921875 C29.74880737 29.74916383 27.75887628 34.19358653 23.6875 38.375 C14.89163282 43.69343132 11.8231229 43 0 43 C0 28.81 0 14.62 0 0 Z " fill="#FDFDFD" transform="translate(373,501)"/>
<path d="M0 0 C8.58 0 17.16 0 26 0 C26 2.64 26 5.28 26 8 C23.69 8 21.38 8 19 8 C19 26.15 19 44.3 19 63 C21.31 63 23.62 63 26 63 C26 65.97 26 68.94 26 72 C17.42 72 8.84 72 0 72 C0 69.03 0 66.06 0 63 C2.31 63 4.62 63 7 63 C7 44.85 7 26.7 7 8 C4.69 8 2.38 8 0 8 C0 5.36 0 2.72 0 0 Z " fill="#292526" transform="translate(311,38)"/>
<path d="M0 0 C0.85049423 0.00222061 1.70098846 0.00444122 2.57725525 0.00672913 C4.01863609 0.00684242 4.01863609 0.00684242 5.48913574 0.00695801 C7.05630592 0.01469994 7.05630592 0.01469994 8.65513611 0.02259827 C9.71913132 0.02401321 10.78312653 0.02542816 11.87936401 0.02688599 C15.29293069 0.03250388 18.70643286 0.04505941 22.11997986 0.05775452 C24.42792162 0.06276721 26.73586441 0.06733052 29.04380798 0.07142639 C34.71505697 0.08247913 40.38625746 0.09975574 46.05747986 0.12025452 C46.05747986 5.40025452 46.05747986 10.68025452 46.05747986 16.12025452 C43.41747986 16.12025452 40.77747986 16.12025452 38.05747986 16.12025452 C38.05747986 13.48025452 38.05747986 10.84025452 38.05747986 8.12025452 C34.09747986 8.12025452 30.13747986 8.12025452 26.05747986 8.12025452 C26.05747986 22.31025452 26.05747986 36.50025452 26.05747986 51.12025452 C28.36747986 51.12025452 30.67747986 51.12025452 33.05747986 51.12025452 C33.05747986 53.43025452 33.05747986 55.74025452 33.05747986 58.12025452 C25.79747986 58.12025452 18.53747986 58.12025452 11.05747986 58.12025452 C11.05747986 55.81025452 11.05747986 53.50025452 11.05747986 51.12025452 C13.03747986 51.12025452 15.01747986 51.12025452 17.05747986 51.12025452 C17.05747986 36.93025452 17.05747986 22.74025452 17.05747986 8.12025452 C13.42747986 8.12025452 9.79747986 8.12025452 6.05747986 8.12025452 C6.05747986 10.76025452 6.05747986 13.40025452 6.05747986 16.12025452 C3.08747986 16.12025452 0.11747986 16.12025452 -2.94252014 16.12025452 C-2.96937109 13.64101651 -2.98928562 11.16206612 -3.00502014 8.68275452 C-3.0175885 7.62217834 -3.0175885 7.62217834 -3.03041077 6.54017639 C-3.03905602 4.73331892 -2.99472026 2.92637849 -2.94252014 1.12025452 C-1.94252014 0.12025452 -1.94252014 0.12025452 0 0 Z " fill="#2E2A2B" transform="translate(200.94252014160156,492.87974548339844)"/>
<path d="M0 0 C15.84 0 31.68 0 48 0 C48 4.95 48 9.9 48 15 C45.36 15 42.72 15 40 15 C40 12.03 40 9.06 40 6 C36.37 6 32.74 6 29 6 C29 20.52 29 35.04 29 50 C30.98 50 32.96 50 35 50 C35 52.31 35 54.62 35 57 C27.74 57 20.48 57 13 57 C13 54.69 13 52.38 13 50 C14.98 50 16.96 50 19 50 C19 35.81 19 21.62 19 7 C15.37 7 11.74 7 8 7 C8 9.64 8 12.28 8 15 C5.36 15 2.72 15 0 15 C0 10.05 0 5.1 0 0 Z " fill="#2B2728" transform="translate(145,494)"/>
<path d="M0 0 C3.5578125 -0.0928125 3.5578125 -0.0928125 7.1875 -0.1875 C8.29387817 -0.22846802 8.29387817 -0.22846802 9.42260742 -0.27026367 C13.83935173 -0.32573392 16.52119467 0.27164994 20 3 C22.70556375 7.05834563 22.51943246 10.24132846 22 15 C20.63205469 18.70149906 19.42360704 19.73862544 16.0625 21.8125 C10.9075061 23.79006232 5.42269483 23.18278747 0 23 C0 15.41 0 7.82 0 0 Z " fill="#FBFBFB" transform="translate(127,47)"/>
<path d="M0 0 C11.94878706 -0.60347409 11.94878706 -0.60347409 16.375 1.9375 C18.33993569 5.64064804 18.45009585 7.83632734 17.68359375 11.90625 C17 14 17 14 15.1875 16.5625 C10.1342154 18.84143227 5.50441024 18.2419521 0 18 C0 12.06 0 6.12 0 0 Z " fill="#F6F6F6" transform="translate(52,501)"/>
<path d="M0 0 C12.32069672 -0.49282787 12.32069672 -0.49282787 15.390625 1.734375 C17.65905656 4.92779807 17.56355706 7.06878923 17.39453125 10.875 C17 13 17 13 15.1875 15.5 C11.68796356 17.89968213 8.94278485 18.11614006 4.8125 18.0625 C3.224375 18.041875 1.63625 18.02125 0 18 C0 12.06 0 6.12 0 0 Z " fill="#FDFDFD" transform="translate(317,501)"/>
<path d="M0 0 C2.2534872 2.2534872 2.73648451 3.71974454 3.7265625 6.71875 C4.0359375 7.65074219 4.3453125 8.58273438 4.6640625 9.54296875 C4.98117188 10.51878906 5.29828125 11.49460937 5.625 12.5 C5.94984375 13.47582031 6.2746875 14.45164062 6.609375 15.45703125 C9 22.71930804 9 22.71930804 9 25 C3.06 25 -2.88 25 -9 25 C-6.286575 16.55823333 -3.14265947 8.28889147 0 0 Z " fill="#F6F6F6" transform="translate(210,49)"/>
<path d="M0 0 C2.80863551 1.40431775 3.00033174 3.37463659 3.953125 6.22460938 C4.17484375 6.91361328 4.3965625 7.60261719 4.625 8.3125 C4.85445313 8.98990234 5.08390625 9.66730469 5.3203125 10.36523438 C6.44230901 13.78131304 7 16.3665148 7 20 C2.38 20 -2.24 20 -7 20 C-5.04068712 13.14240492 -2.75665244 6.57678502 0 0 Z " fill="#EBEAEA" transform="translate(442,503)"/>
</svg>
