<?xml version="1.0" encoding="utf-8"?>
<!-- Generator: Adobe Illustrator 24.1.3, SVG Export Plug-In . SVG Version: 6.00 Build 0)  -->
<svg version="1.1" id="Laag_1" xmlns="http://www.w3.org/2000/svg" xmlns:xlink="http://www.w3.org/1999/xlink" x="0px" y="0px"
	 viewBox="0 0 407.3 194.6" style="enable-background:new 0 0 407.3 194.6;" xml:space="preserve">
<style type="text/css">
	.st0{fill:#FAB70F;}
</style>
<g>
	<path class="st0" d="M353.6,180.1c-33.9-12.9-114.9-24.4-243.5,14.3c-3.5,1-7.1-1.4-7.3-5l0,0c-0.2-2.5,1.3-4.9,3.7-5.7
		c93.4-35.1,188.6-40,232.1-32.8c6.4,1.1,18.3,4.2,18.3,19.5C356.9,176.5,353.6,180.1,353.6,180.1z"/>
	<path class="st0" d="M315.7,102.3l0.5-0.7v0.9c0.9,17.2,9.7,28.1,22.4,27.7c9.5-0.3,16.2-8,20.2-14.4l0.4-0.7l0.1,0.8
		c1.8,9.5,7.9,15.2,16.8,15.5c16.1,0.6,28.6-15,30.8-23.5c1.9-7.2-2.8-10.4-4.1-11.1c-0.8,2.3-5.6,14.9-14.4,14.6
		c-1.6,0-2.8-0.6-3.7-1.6c-1.6-1.8-1.7-4.6-1.5-6.7c1.6-19.3,14.4-46.9,19.9-58.8c-0.4-1.1-3.7-8.9-11.8-9c-4.9,0-9.2,2-12.7,5.9
		l-0.2,0.3l-0.2-0.3c-2.7-3.5-8.8-9.3-19.4-8.9c-15.2,0.6-30.4,16-37.9,38.2l-0.2,0.5c0,0-7.4,15.4-18.3,28.6l-0.4,0.5l-0.1-0.6
		c-2-11-9.5-15.8-16.7-20.5c-7.5-4.8-14.6-9.4-15-20.2c-0.1-3.4,1-6.5,3-8.6c1.9-1.9,4.5-3,7.5-3c2.4,0,4.1,0.8,5.1,2.3
		c2.8,4.2-0.5,12.6-1,14c0.8,0.8,5,4.9,12.4,4.3c4.4-0.3,11.6-3.9,10.8-14.9c-1-13.7-10.5-20.6-28.3-20.6c-9.7,0-18.7,3.8-25.4,10.7
		c-5.6,5.8-8.7,13.1-8.5,19.9c0.4,12.6,8.9,18.3,17,23.8c7.2,4.9,14.1,9.5,14.4,18.5c0.1,4.4-1.5,7.1-3,8.6c-1.9,1.9-4.5,3.1-7,3.1
		c-2.8,0-4.9-0.9-6-2.7c-2.9-4.6,0.8-13.4,1.5-14.9c-0.8-0.8-4.8-4.7-10.8-4.7c-4.7,0-8.3,2.1-10.4,5.9c-0.4,0.7-9.5,17.1-17.8,17.1
		c-2.9,0-4.8-2.4-4.8-6.1c0-7.5,2.3-15.9,4.8-24.9c2.9-10.6,6-21.6,6-33.2c0-4.6-1.5-8.2-4.2-10.6c-2.7-2.3-6.4-3.3-10.3-2.8
		c-8.4,1.2-12.3,6-12.9,6.8c0.3,1,2.2,7,2.2,13.2c0,3.8-0.6,8.6-1.9,15.2c-1.7,4.6-17.3,44.1-41.1,49c-4.4,0.9-8,0.3-10.9-1.8
		c-3.2-2.4-5.3-6.6-5.9-12.2v-0.3h0.3c14.2-2.1,37.6-15.1,40.2-41.1c0.6-5.6-1.2-10.8-5.1-14.9c-5.3-5.5-12.9-7.6-18.2-7.3
		c-11,0.6-20.4,6.7-27.9,18.1c-7.8,11.8-11.3,25.7-12.6,32.9l-0.1,0.3H121c-4.6-0.1-9.2-0.1-13.7-0.1h-0.4l0.1-0.4
		c0.2-1.5,0.4-3,0.6-4.4c2.1-15.6,4.4-31.8,3.4-47.3c-0.4-5.7-2.2-10.8-5.1-14.1c-2.9-3.4-6.8-5-11.3-4.7c-7,0.5-12,3.5-14,4.9
		c6,16.2,4.4,41.6,1.8,66.7v0.3h-0.3c-7,0.5-13.7,1.2-19.9,2.1l-0.4,0.1l0.1-0.4c1.8-13.6,3.6-28.1,2.7-42.1
		c-0.4-5.7-2.2-10.8-5.1-14.1c-2.9-3.4-6.8-5-11.3-4.7c-7,0.5-12,3.5-14,4.9c5.8,15.7,4.5,39.8,2.3,61.3v0.2l-0.2,0.1
		C12.9,112.8,0,123,0,135c0,7.9,8.8,14.2,10.3,15.2c4.6-5.6,12.5-11.5,22.9-17.1l0.5-0.3l-0.1,0.6c-0.9,9.5-1.2,15.4-0.9,19.7
		c0.5,7.9,2.6,13.5,6.1,16.6c3.6,3.1,7.7,2.8,9.7,2.7c6.3-0.4,11.1-3.1,13.1-4.4c-5.1-14.7-4.2-30.9-2.4-46.1v-0.2l0.2-0.1
		c6.7-2.4,13.8-4.6,20.9-6.4l0.4-0.1l-0.1,0.5c-1.2,10.8-1.8,19.2-1.5,24.9c0.5,7.9,2.6,13.5,6.1,16.6c3.6,3.1,7.7,2.8,9.7,2.7
		c6.3-0.4,11.1-3.1,13.1-4.4c-5-14.6-4.1-31-2.5-45.1v-0.2h0.2c4.6-0.7,9.3-1.3,13.9-1.8h0.4l-0.1,0.8c-0.8,16.3,5.5,27.8,11.6,33
		c5.9,5,13.3,6.7,22.1,4.9c19.5-4,32.8-19.8,40.6-32.5l0.6-1v1.2c0,0.4,0,0.9,0,1.3c0,7.4,1.9,13.1,5.7,16.8c3,3,7.2,4.6,11.8,4.6
		c12.9,0,22.1-10.9,27.5-20l0.4-0.6l0.2,0.7c3,9,12.2,14.4,25.2,14.7h0.1l0,0c0.4,0,0.8,0,1.2,0c5.1,0,10.5-1.1,15.5-3.1
		C294.5,124.6,305.6,115.6,315.7,102.3z M340.8,94.4c1.2-29.5,14.4-43.9,22.9-44.2c6.5-0.3,9.7,3.7,9.9,3.9l0.1,0.1v0.1
		c-0.4,2.2-10.9,53.5-25.6,54.1c-0.1,0-0.2,0-0.3,0c-1.6,0-3-0.5-4.1-1.6C341.6,104.7,340.6,100.5,340.8,94.4z M145.4,97.2
		c2.3-18.1,9.1-32.6,15.7-33.8c0.9-0.1,1.6,0,2.2,0.5c0.9,0.8,1.4,2.2,1.5,4.1c0.1,4.4-2.9,23.2-18.9,29.4l-0.5,0.2V97.2z"/>
	<path class="st0" d="M212.1,30.2c3.1,1.8,6.9,2,10.6,0.6c7.8-2.9,12.8-12,11.2-20.3c-0.8-4-3-7.2-6.2-9c-1.8-1-3.7-1.5-5.8-1.5
		c-1.6,0-3.2,0.3-4.8,0.9c-7.8,2.9-12.8,12-11.2,20.3C206.7,25.2,208.9,28.4,212.1,30.2z"/>
</g>
</svg>
