<svg id="Layer_1" xmlns="http://www.w3.org/2000/svg" viewBox="0 0 72 13" width="222" height="40"><style>.st0{fill:#fff}.st1{fill:black}</style><path class="st0" d="M2.9 12.2h9.5V2.8s0-1.9-1.9-1.9H2.9S1 .9 1 2.8v7.6c0-.2 0 1.8 1.9 1.8z"/><path class="st1" d="M9 6.5c.4-.4.6-.9.7-1.3.1-.2.1-.5 0-.7-.1-.8-1.3-1-2.6-.3L7 3.3 5.5 4l.2 1.1c.3 0 .4-.1.5-.1.4 0 .5.4.3 1-.1.2-.2.5-.4.6L6.4 8c.2.9 1.3 1 2.6.3s2.1-2 2-2.9c-.1.4-.4.8-.9 1.1s-1 .3-1.1 0zM5.1 7.2c-.4 0-.5-.4-.3-1 .2-.3.3-.5.5-.7l-.2-1.2-2.7 1.4.8 4 2.6-1.5L5.6 7c-.2.1-.3.2-.5.2z"/><g><path class="st0" d="M18.1 5.6l-.9-1.2h-.1v1.2h-.6V2.7s.5-.1.9-.1c.8 0 1.1.4 1.1.8 0 .7-.6.8-.6.8l.9 1.2-.7.2zm-.8-2.5h-.2v.8h.3c.3 0 .5-.1.5-.5-.1-.2-.3-.3-.6-.3zM20.5 5.6c-1 0-1.6-.6-1.6-1.5s.6-1.6 1.6-1.6 1.6.6 1.6 1.5c0 1-.6 1.6-1.6 1.6zm0-2.5c-.6 0-.9.4-.9 1 0 .7.4 1 .9 1s.9-.3.9-1c.1-.6-.3-1-.9-1zM24 3.2v2.4h-.7V3.2h-.9v-.5h2.5v.5H24zM26.9 3.2v2.4h-.7V3.2h-.9v-.5h2.5v.5h-.9zM28.3 5.5V2.7h1.8v.5h-1.2v.6H30v.5h-1.1V5h1.3v.5h-1.9zM32.4 5.6l-.9-1.2h-.1v1.2h-.6V2.7s.5-.1.9-.1c.8 0 1.1.4 1.1.8 0 .7-.6.8-.6.8l.9 1.2-.7.2zm-.8-2.5h-.2v.8h.3c.3 0 .5-.1.5-.5-.1-.2-.3-.3-.6-.3zM34.6 5.6c-.5 0-1-.1-1-.1V2.7s.4-.1 1.1-.1c.8 0 1.6.4 1.6 1.4.1.9-.5 1.6-1.7 1.6zm0-2.5h-.4V5h.4c.8 0 1-.4 1-1 .1-.5-.2-.9-1-.9zM38.8 5.6l-.4-.9h-1l-.4.9-.6-.1 1.2-2.8h.6l1.2 2.8-.6.1zM38 3.4l-.4.9h.7l-.3-.9zM43.1 5.6l-.3-1.9-.8 1.8h-.5l-.8-1.7-.3 1.8-.6-.1.5-2.9h.5l.9 2 .9-2h.5l.5 2.9-.5.1zM46.8 5.6c-.9 0-1.2-.5-1.2-1.3V2.7h.7v1.7c0 .2 0 .4.1.5 0 .1.1.2.4.2.5 0 .6-.2.6-.7V2.7h.7v1.7c0 .8-.5 1.2-1.3 1.2zM51 5.6l-1.5-1.9v1.9h-.6V2.7l.6-.1 1.5 2V2.7h.6v2.9H51zM52.4 5.5V2.7h.7v2.9h-.7v-.1zM55.3 5.5h-.6l-1.1-2.8.7-.1.7 2.1.7-2.1.6.1-1 2.8zM56.9 5.5V2.7h1.8v.5h-1.2v.6h1.1v.5h-1.1V5h1.3v.5h-1.9zM61.1 5.6l-.9-1.2h-.1v1.2h-.6V2.7s.5-.1.9-.1c.8 0 1.1.4 1.1.8 0 .7-.6.8-.6.8l.9 1.2-.7.2zm-.9-2.5H60v.8h.3c.3 0 .5-.1.5-.5-.1-.2-.2-.3-.6-.3zM63 5.6c-.6 0-1-.2-1-.2l.1-.6s.4.3.9.3c.3 0 .4-.1.4-.3 0-.3-.3-.4-.6-.5-.3-.1-.7-.3-.7-.9 0-.5.5-.8 1.1-.8.5 0 .8.2.8.2l-.2.6s-.3-.2-.7-.2c-.2 0-.4.1-.4.3 0 .2.3.3.6.5.4.1.7.3.7.9.1.4-.4.7-1 .7zM64.8 5.5V2.7h.7v2.9h-.7v-.1zM67.5 3.2v2.4h-.7V3.2h-.9v-.5h2.5v.5h-.9zM70.5 4.3v1.3h-.7V4.3l-1.1-1.6.7-.1.7 1.1.7-1.1.6.1-.9 1.6zM17.8 10.4c-1 0-1.6-.6-1.6-1.5s.6-1.6 1.6-1.6 1.6.6 1.6 1.5c0 1-.7 1.6-1.6 1.6zm0-2.5c-.6 0-.9.4-.9 1 0 .7.4 1 .9 1s.9-.3.9-1-.3-1-.9-1zM20.7 7.9v.6h1.1V9h-1.1v1.2h-.6V7.4h1.8v.5h-1.2zM25.6 10.4l-.3-.9h-1l-.4.9-.6-.1 1.2-2.8h.5l1.1 2.8-.5.1zm-.9-2.3l-.4.9h.7l-.3-.9zM27.7 9.1h-.3v1.2h-.6V7.4s.6-.1.9-.1c.7 0 1.1.2 1.1.9s-.6.9-1.1.9zm0-1.3h-.3v.8h.3c.3 0 .5-.1.5-.5-.1-.1-.2-.3-.5-.3zM30.2 9.1h-.3v1.2h-.6V7.4s.6-.1.9-.1c.7 0 1.1.2 1.1.9s-.6.9-1.1.9zm0-1.3h-.3v.8h.3c.3 0 .5-.1.5-.5-.1-.1-.2-.3-.5-.3zM31.8 10.3V7.4h.7v2.4h1.3v.5h-2zM34.1 10.3V7.4h.7v2.9h-.7zM35.7 10.3V7.4h1.8v.5h-1.1v.6h1V9h-1v.7h1.3v.5h-2v.1zM39.3 10.4c-.5 0-1-.1-1-.1V7.4s.4-.1 1.1-.1c1 0 1.7.4 1.7 1.4-.1 1-.7 1.7-1.8 1.7zm0-2.5h-.4v1.9h.4c.8 0 1-.4 1-1 0-.5-.3-.9-1-.9zM43.5 10.4c-.6 0-1-.2-1-.2l.1-.6s.4.3.9.3c.3 0 .4-.1.4-.3 0-.3-.3-.4-.6-.5-.3-.1-.7-.3-.7-.9 0-.5.5-.8 1.1-.8.5 0 .8.2.8.2l-.1.5s-.3-.2-.7-.2c-.2 0-.4.1-.4.3s.3.3.6.5c.4.1.7.3.7.9 0 .4-.5.8-1.1.8zM46.6 10.4c-.9 0-1.5-.5-1.5-1.4 0-1 .7-1.6 1.6-1.6.6 0 .9.2.9.2l-.1.5s-.3-.2-.7-.2c-.6 0-.9.4-.9 1s.4.9.9.9.8-.3.8-.3l.3.5c-.2 0-.6.4-1.3.4zM48.2 10.3V7.4h.7v2.9h-.7zM49.7 10.3V7.4h1.8v.5h-1.2v.6h1.1V9h-1.1v.7h1.3v.5h-1.9v.1zM54.3 10.4l-1.5-1.9v1.9h-.6v-3l.5-.1 1.5 2V7.4h.6v2.9l-.5.1zM57.1 10.4c-.9 0-1.5-.5-1.5-1.4 0-1 .7-1.6 1.6-1.6.6 0 .9.2.9.2l-.2.6s-.3-.2-.7-.2c-.6 0-.9.4-.9 1s.4.9.9.9.8-.3.8-.3l.3.5c-.1-.1-.5.3-1.2.3zM58.7 10.3V7.4h1.8v.5h-1.2v.6h1.1V9h-1.1v.7h1.3v.5h-1.9v.1zM62.1 10.4c-.6 0-1-.2-1-.2l.1-.6s.4.3.9.3c.3 0 .4-.1.4-.3 0-.3-.3-.4-.6-.5-.3-.1-.7-.3-.7-.9 0-.5.5-.8 1.1-.8.5 0 .8.2.8.2l-.2.6s-.3-.2-.7-.2c-.2 0-.4.1-.4.3s.3.3.6.5c.4.1.7.3.7.9 0 .3-.4.7-1 .7z"/></g></svg>
